<svg width="28" height="8" viewBox="0 0 28 8" fill="none" xmlns="http://www.w3.org/2000/svg">
<path d="M0.75 3.75C0.473858 3.75 0.25 3.97386 0.25 4.25C0.25 4.52614 0.473858 4.75 0.75 4.75V3.75ZM27.6036 4.60355C27.7988 4.40829 27.7988 4.09171 27.6036 3.89645L24.4216 0.714466C24.2263 0.519204 23.9097 0.519204 23.7145 0.714466C23.5192 0.909728 23.5192 1.22631 23.7145 1.42157L26.5429 4.25L23.7145 7.07843C23.5192 7.27369 23.5192 7.59027 23.7145 7.78553C23.9097 7.9808 24.2263 7.9808 24.4216 7.78553L27.6036 4.60355ZM0.75 4.75L27.25 4.75V3.75L0.75 3.75V4.75Z" fill="#97244C"/>
</svg>
